<svg width="24" height="24" viewBox="0 0 24 24" fill="none" xmlns="http://www.w3.org/2000/svg">
<path d="M3.17773 13H5.13329V11H3.17773V13ZM3.17773 17H5.13329V15H3.17773V17ZM3.17773 9H5.13329V7H3.17773V9ZM7.08885 13H20.7777V11H7.08885V13ZM7.08885 17H20.7777V15H7.08885V17ZM7.08885 7V9H20.7777V7H7.08885ZM3.17773 13H5.13329V11H3.17773V13ZM3.17773 17H5.13329V15H3.17773V17ZM3.17773 9H5.13329V7H3.17773V9ZM7.08885 13H20.7777V11H7.08885V13ZM7.08885 17H20.7777V15H7.08885V17ZM7.08885 7V9H20.7777V7H7.08885Z" fill="#0079C1"/>
</svg>
