<svg width="30" height="30" viewBox="0 0 30 30" fill="none" xmlns="http://www.w3.org/2000/svg">
<g clip-path="url(#clip0_13_2020)">
<path d="M14.6848 5.86279C8.68316 5.86279 3.55775 9.59581 1.48119 14.8653C3.55775 20.1347 8.68316 23.8677 14.6848 23.8677C20.6864 23.8677 25.8118 20.1347 27.8884 14.8653C25.8118 9.59581 20.6864 5.86279 14.6848 5.86279ZM14.6848 20.8669C11.3719 20.8669 8.68316 18.1782 8.68316 14.8653C8.68316 11.5523 11.3719 8.86361 14.6848 8.86361C17.9977 8.86361 20.6864 11.5523 20.6864 14.8653C20.6864 18.1782 17.9977 20.8669 14.6848 20.8669ZM14.6848 11.2643C12.6923 11.2643 11.0838 12.8727 11.0838 14.8653C11.0838 16.8578 12.6923 18.4662 14.6848 18.4662C16.6773 18.4662 18.2858 16.8578 18.2858 14.8653C18.2858 12.8727 16.6773 11.2643 14.6848 11.2643Z" fill="#0079C1"/>
</g>
<defs>
<clipPath id="clip0_13_2020">
<rect width="28.8079" height="28.8079" fill="white" transform="translate(0.280853 0.461426)"/>
</clipPath>
</defs>
</svg>
