<svg width="24" height="24" viewBox="0 0 24 24" fill="none" xmlns="http://www.w3.org/2000/svg">
<g clip-path="url(#clip0_2_613)">
<path d="M11.9777 6C13.0533 6 13.9333 6.9 13.9333 8C13.9333 9.1 13.0533 10 11.9777 10C10.9022 10 10.0222 9.1 10.0222 8C10.0222 6.9 10.9022 6 11.9777 6ZM11.9777 16C14.6177 16 17.6489 17.29 17.8444 18H6.11107C6.33596 17.28 9.34752 16 11.9777 16ZM11.9777 4C9.81685 4 8.06663 5.79 8.06663 8C8.06663 10.21 9.81685 12 11.9777 12C14.1386 12 15.8889 10.21 15.8889 8C15.8889 5.79 14.1386 4 11.9777 4ZM11.9777 14C9.36707 14 4.15552 15.34 4.15552 18V20H19.8V18C19.8 15.34 14.5884 14 11.9777 14Z" fill="#0079C1"/>
</g>
<defs>
<clipPath id="clip0_2_613">
<rect width="23.4667" height="24" fill="white" transform="translate(0.244385)"/>
</clipPath>
</defs>
</svg>
