<svg width="163" height="46" viewBox="0 0 163 46" fill="none" xmlns="http://www.w3.org/2000/svg">
<path d="M21.7914 22.9443L24.3281 25.4706L19.9324 29.8484L13 22.9443L36.0384 0L55.5672 19.449L50.2854 22.9443L36.0384 8.75552L21.7914 22.9443Z" fill="#0079C1"/>
<path d="M23.2985 33.284L27.5966 28.9758L35.9847 37.2795L59 23L35.9847 46L23.2985 33.284Z" fill="#0079C1"/>
<path d="M87.648 29.04L84.832 21.008L82.016 29.04H87.648ZM89.312 33.808H80.352L78.912 38H72.224L81.408 13.872H88.256L97.44 38H90.752L89.312 33.808ZM116.685 21.936C115.235 20.1653 113.443 19.28 111.309 19.28C110.371 19.28 109.496 19.4507 108.685 19.792C107.896 20.1333 107.213 20.6027 106.637 21.2C106.061 21.776 105.603 22.4693 105.261 23.28C104.941 24.0907 104.781 24.9653 104.781 25.904C104.781 26.864 104.941 27.7493 105.261 28.56C105.603 29.3707 106.061 30.0747 106.637 30.672C107.235 31.2693 107.928 31.7387 108.717 32.08C109.507 32.4213 110.36 32.592 111.277 32.592C113.283 32.592 115.085 31.7387 116.685 30.032V37.456L116.045 37.68C115.085 38.0213 114.189 38.2667 113.357 38.416C112.525 38.5867 111.704 38.672 110.893 38.672C109.229 38.672 107.629 38.3627 106.093 37.744C104.579 37.104 103.235 36.2187 102.061 35.088C100.909 33.936 99.9813 32.5813 99.2773 31.024C98.5733 29.4453 98.2213 27.728 98.2213 25.872C98.2213 24.016 98.5626 22.32 99.2453 20.784C99.9493 19.2267 100.877 17.8933 102.029 16.784C103.203 15.6533 104.557 14.7787 106.093 14.16C107.629 13.52 109.24 13.2 110.925 13.2C111.885 13.2 112.824 13.3067 113.741 13.52C114.68 13.712 115.661 14.0213 116.685 14.448V21.936ZM129.805 19.184V38H123.533V19.184H118.381V13.872H134.957V19.184H129.805Z" fill="#0079C1"/>
</svg>
