<svg width="24" height="24" viewBox="0 0 24 24" fill="none" xmlns="http://www.w3.org/2000/svg">
<g clip-path="url(#clip0_2_594)">
<path d="M21.6454 8.98V18C21.6454 19.1 20.7688 20 19.6975 20H4.11428C3.04294 20 2.16638 19.1 2.16638 18L2.17612 6C2.17612 4.9 3.04294 4 4.11428 4H13.9512C13.8927 4.32 13.8538 4.66 13.8538 5C13.8538 5.34 13.8927 5.68 13.9512 6H4.11428L11.9059 11L15.4803 8.71C15.938 9.14 16.4737 9.47 17.0678 9.69L11.9059 13L4.11428 8V18H19.6975V9.9C20.4182 9.75 21.0805 9.42 21.6454 8.98ZM15.8017 5C15.8017 6.66 17.1068 8 18.7235 8C20.3403 8 21.6454 6.66 21.6454 5C21.6454 3.34 20.3403 2 18.7235 2C17.1068 2 15.8017 3.34 15.8017 5Z" fill="#0079C1"/>
</g>
<defs>
<clipPath id="clip0_2_594">
<rect width="23.3748" height="24" fill="white" transform="translate(0.218506)"/>
</clipPath>
</defs>
</svg>
