<svg width="26" height="24" viewBox="0 0 26 24" fill="none" xmlns="http://www.w3.org/2000/svg">
<g clip-path="url(#clip0_12_2474)">
<path d="M24.2732 12L21.7418 9.22004L22.0945 5.54004L18.3493 4.72004L16.3885 1.54004L12.8612 3.00004L9.33386 1.54004L7.37308 4.72004L3.62787 5.53004L3.9806 9.21004L1.44922 12L3.9806 14.78L3.62787 18.47L7.37308 19.29L9.33386 22.47L12.8612 21L16.3885 22.46L18.3493 19.28L22.0945 18.46L21.7418 14.78L24.2732 12ZM19.5943 14.11L19.864 16.9L17.0214 17.52L15.5378 19.93L12.8612 18.82L10.1846 19.93L8.70102 17.52L5.85839 16.9L6.12813 14.1L4.20884 12L6.12813 9.88004L5.85839 7.10004L8.70102 6.49004L10.1846 4.08004L12.8612 5.18004L15.5378 4.07004L17.0214 6.48004L19.864 7.10004L19.5943 9.89004L21.5136 12L19.5943 14.11ZM11.8238 15H13.8987V17H11.8238V15ZM11.8238 7.00004H13.8987V13H11.8238V7.00004Z" fill="#0079C1"/>
</g>
<defs>
<clipPath id="clip0_12_2474">
<rect width="24.8989" height="24" fill="white" transform="translate(0.412109)"/>
</clipPath>
</defs>
</svg>
