<svg width="26" height="24" viewBox="0 0 26 24" fill="none" xmlns="http://www.w3.org/2000/svg">
<g clip-path="url(#clip0_12_2541)">
<path d="M12.8914 4V1L8.74161 5L12.8914 9V6C16.3254 6 19.1161 8.69 19.1161 12C19.1161 13.01 18.8568 13.97 18.3899 14.8L19.9046 16.26C20.7138 15.03 21.191 13.57 21.191 12C21.191 7.58 17.477 4 12.8914 4ZM12.8914 18C9.45745 18 6.6667 15.31 6.6667 12C6.6667 10.99 6.92607 10.03 7.39292 9.2L5.87824 7.74C5.06903 8.97 4.5918 10.43 4.5918 12C4.5918 16.42 8.30588 20 12.8914 20V23L17.0412 19L12.8914 15V18Z" fill="#0079C1"/>
</g>
<defs>
<clipPath id="clip0_12_2541">
<rect width="24.8989" height="24" fill="white" transform="translate(0.441895)"/>
</clipPath>
</defs>
</svg>
