<svg width="26" height="24" viewBox="0 0 26 24" fill="none" xmlns="http://www.w3.org/2000/svg">
<path d="M4.06348 12C4.06348 14.21 5.00756 16.2 6.51187 17.64L4.06348 20H10.2882V14L7.9643 16.24C6.84385 15.15 6.13838 13.66 6.13838 12C6.13838 9.39 7.87093 7.17 10.2882 6.35V4.26C6.70898 5.15 4.06348 8.27 4.06348 12ZM12.3631 17H14.438V15H12.3631V17ZM22.7376 4H16.5129V10L18.8368 7.76C19.9573 8.85 20.6627 10.34 20.6627 12C20.6627 14.61 18.9302 16.83 16.5129 17.65V19.74C20.0921 18.85 22.7376 15.73 22.7376 12C22.7376 9.79 21.7936 7.8 20.2892 6.36L22.7376 4ZM12.3631 13H14.438V7H12.3631V13Z" fill="#FF6A61"/>
</svg>
