<svg width="25" height="24" viewBox="0 0 25 24" fill="none" xmlns="http://www.w3.org/2000/svg">
<path d="M3.19092 12C3.19092 14.21 4.135 16.2 5.63931 17.64L3.19092 20H9.41564V14L7.09174 16.24C5.97129 15.15 5.26582 13.66 5.26582 12C5.26582 9.39 6.99837 7.17 9.41564 6.35V4.26C5.83642 5.15 3.19092 8.27 3.19092 12ZM11.4905 17H13.5654V15H11.4905V17ZM21.8651 4H15.6404V10L17.9643 7.76C19.0847 8.85 19.7902 10.34 19.7902 12C19.7902 14.61 18.0576 16.83 15.6404 17.65V19.74C19.2196 18.85 21.8651 15.73 21.8651 12C21.8651 9.79 20.921 7.8 19.4167 6.36L21.8651 4ZM11.4905 13H13.5654V7H11.4905V13Z" fill="#FF6A61"/>
</svg>
